<svg width="64" height="64" viewBox="0 0 64 64" fill="none" xmlns="http://www.w3.org/2000/svg">
<path d="M24.3982 1.57935C25.3913 1.213 33.727 -0.564742 38.4465 0.180781C43.1659 0.926304 47.651 2.87525 51.5271 5.86485C55.4033 8.85446 58.558 12.7979 60.7278 17.366C62.8976 21.934 64.0195 26.994 63.9997 32.1233C63.98 37.2527 62.8193 42.3025 60.6145 46.8511C58.4097 51.3997 55.2248 55.315 51.3258 58.2701C47.4268 61.2252 42.9269 63.1342 38.2019 63.8378C33.4769 64.5413 25.3297 62.7555 24.1648 62.3144C23 61.8733 28.3551 46.0803 29.3594 46.4609C30.3638 46.8414 33.8031 47.5235 36.0578 47.1878C38.3126 46.852 40.4599 45.9411 42.3205 44.5309C44.181 43.1208 45.7008 41.2524 46.753 39.0819C47.8051 36.9113 48.359 34.5016 48.3684 32.0539C48.3778 29.6062 47.8424 27.1916 46.807 25.0118C45.7716 22.832 44.2662 20.9502 42.4165 19.5235C40.5669 18.0969 38.4266 17.1669 36.1745 16.8111C33.9224 16.4554 30.2318 17.1978 29.4708 17.4785C28.7098 17.7593 23.4051 1.9457 24.3982 1.57935Z" fill="#36BBDF"/>
<path d="M0 32C-1.94714e-08 30.9304 11.5832 10 12.9999 10C14.4167 9.99999 26 30.9304 26 32C26 33.0696 14.4167 54 12.9999 54C11.5832 54 1.94714e-08 33.0696 0 32Z" fill="#36BBDF"/>
</svg>
